<svg width="24" height="24" viewBox="0 0 24 24" fill="none" xmlns="http://www.w3.org/2000/svg">
<path fill-rule="evenodd" clip-rule="evenodd" d="M16.0001 3.24352H8.00034C5.23901 3.24352 3.00051 5.48202 3.00051 8.24335V16.2431C3.00051 19.0044 5.23901 21.2429 8.00034 21.2429H16.0001C18.7614 21.2429 20.9999 19.0044 20.9999 16.2431V8.24335C20.9999 5.48202 18.7614 3.24352 16.0001 3.24352ZM19.25 16.2431C19.2445 18.0356 17.7926 19.4875 16.0001 19.493H8.00034C6.20775 19.4875 4.75594 18.0356 4.75045 16.2431V8.24335C4.75594 6.45076 6.20775 4.99895 8.00034 4.99346H16.0001C17.7926 4.99895 19.2445 6.45076 19.25 8.24335V16.2431ZM16.75 8.49334C17.3023 8.49334 17.75 8.04564 17.75 7.49337C17.75 6.94111 17.3023 6.49341 16.75 6.49341C16.1978 6.49341 15.7501 6.94111 15.7501 7.49337C15.7501 8.04564 16.1978 8.49334 16.75 8.49334ZM12.0002 7.74337C9.51501 7.74337 7.50036 9.75802 7.50036 12.2432C7.50036 14.7284 9.51501 16.7431 12.0002 16.7431C14.4854 16.7431 16.5001 14.7284 16.5001 12.2432C16.5028 11.049 16.0295 9.90286 15.185 9.0584C14.3405 8.21394 13.1945 7.74071 12.0002 7.74337ZM9.2503 12.2432C9.2503 13.762 10.4815 14.9931 12.0002 14.9931C13.519 14.9931 14.7501 13.762 14.7501 12.2432C14.7501 10.7245 13.519 9.49331 12.0002 9.49331C10.4815 9.49331 9.2503 10.7245 9.2503 12.2432Z" fill="black"/>
</svg>
