<svg width="47" height="47" viewBox="0 0 47 47" fill="none" xmlns="http://www.w3.org/2000/svg">
<path fill-rule="evenodd" clip-rule="evenodd" d="M40.5961 13.9424L40.3219 13.4529C39.9683 12.8608 39.4695 12.3688 38.8728 12.0233L25.7324 4.44454C25.1374 4.09939 24.462 3.91701 23.7741 3.9158H23.2061C22.5182 3.91701 21.8428 4.09939 21.2478 4.44454L8.10743 12.0429C7.514 12.3861 7.02107 12.879 6.67785 13.4724L6.40369 13.962C6.05853 14.557 5.87615 15.2325 5.87494 15.9204V31.0974C5.87615 31.7854 6.05853 32.4608 6.40369 33.0557L6.67785 33.5453C7.02994 34.1318 7.52089 34.6228 8.10743 34.9749L21.2674 42.5536C21.8594 42.9059 22.5368 43.0888 23.2257 43.0824H23.7741C24.462 43.0812 25.1374 42.8989 25.7324 42.5536L38.8728 34.9553C39.472 34.6198 39.9669 34.125 40.3023 33.5257L40.5961 33.0361C40.937 32.4394 41.1192 31.7652 41.1248 31.0778V15.9008C41.1237 15.2129 40.9414 14.5375 40.5961 13.9424ZM23.2061 7.83245H23.7741L35.2499 14.4516L23.4999 21.2274L11.7499 14.4516L23.2061 7.83245ZM25.4582 38.1866L36.9144 31.5674L37.2082 31.0778V17.8395L25.4582 24.6349V38.1866Z" fill="black"/>
</svg>
