<svg width="1393" height="59" viewBox="0 0 1393 59" fill="none" xmlns="http://www.w3.org/2000/svg">
<g filter="url(#filter0_d_0_62)">
<path d="M94.9129 35.5843H98.907V28.7372H100.644L104.886 35.5843H109.153L104.464 28.0426C106.548 27.4224 108.111 26.0083 108.111 23.329V23.2297C108.111 19.5581 105.456 17.8463 101.264 17.8463H94.9129V35.5843ZM98.907 26.0083V20.9226H101.165C103.1 20.9226 104.191 21.5428 104.191 23.3538V23.453C104.191 25.1648 103.174 26.0083 101.165 26.0083H98.907Z" fill="black"/>
<path d="M116.008 35.8547C119.556 35.8547 121.789 34.2918 122.21 31.4884H118.812C118.588 32.58 117.77 33.2995 116.108 33.2995C114.148 33.2995 112.982 32.0591 112.883 29.9008H122.235V28.9084C122.235 24.2692 119.258 22.3094 115.909 22.3094C112.138 22.3094 109.236 24.9639 109.236 29.0573V29.2557C109.236 33.3987 112.089 35.8547 116.008 35.8547ZM112.932 27.6928C113.205 25.857 114.297 24.7902 115.909 24.7902C117.621 24.7902 118.613 25.7329 118.737 27.6928H112.932Z" fill="black"/>
<path d="M123.945 35.5815H127.517V16.7272H123.945V35.5815Z" fill="black"/>
<path d="M134.371 35.8559C136.505 35.8559 137.82 34.8635 138.489 33.5487V35.583H142.062V22.6082H138.489V30.2244C138.489 32.1347 137.298 33.0774 135.786 33.0774C134.248 33.0774 133.528 32.2339 133.528 30.4725V22.6082H129.956V30.9687C129.956 34.3674 131.841 35.8559 134.371 35.8559Z" fill="black"/>
<path d="M144.501 35.5818H148.098V27.9161C148.098 26.1547 149.214 25.2615 150.604 25.2615C151.869 25.2615 152.638 26.0058 152.638 27.668V35.5818H156.211V27.9161C156.211 26.1547 157.327 25.2615 158.716 25.2615C160.006 25.2615 160.75 26.0058 160.75 27.668V35.5818H164.323V27.2711C164.323 23.8227 162.462 22.3094 160.055 22.3094C158.418 22.3094 156.732 23.004 155.69 24.567C155.069 23.0289 153.779 22.3094 152.067 22.3094C150.132 22.3094 148.743 23.3761 148.098 24.5917V22.6071H144.501V35.5818Z" fill="black"/>
<path d="M172.629 35.8547C176.177 35.8547 178.41 34.2918 178.831 31.4884H175.433C175.209 32.58 174.391 33.2995 172.728 33.2995C170.769 33.2995 169.603 32.0591 169.504 29.9008H178.857V28.9084C178.857 24.2692 175.879 22.3094 172.53 22.3094C168.759 22.3094 165.857 24.9639 165.857 29.0573V29.2557C165.857 33.3987 168.71 35.8547 172.629 35.8547ZM169.553 27.6928C169.827 25.857 170.918 24.7902 172.53 24.7902C174.242 24.7902 175.235 25.7329 175.359 27.6928H169.553Z" fill="black"/>
<path fill-rule="evenodd" clip-rule="evenodd" d="M81.1669 18.9051L80.9258 18.4744C80.6147 17.9536 80.176 17.5207 79.651 17.2168L68.0909 10.5495C67.5674 10.2459 66.9733 10.0854 66.3681 10.0843H65.8685C65.2633 10.0854 64.6692 10.2459 64.1457 10.5495L52.5857 17.234C52.0636 17.5359 51.63 17.9696 51.3281 18.4917L51.0869 18.9224C50.7832 19.4458 50.6228 20.04 50.6217 20.6451V33.9969C50.6228 34.602 50.7832 35.1962 51.0869 35.7197L51.3281 36.1504C51.6378 36.6664 52.0697 37.0983 52.5857 37.408L64.1629 44.0752C64.6838 44.3852 65.2797 44.5461 65.8857 44.5404H66.3681C66.9733 44.5393 67.5674 44.3788 68.0909 44.0752L79.651 37.3908C80.1781 37.0957 80.6135 36.6604 80.9085 36.1331L81.1669 35.7024C81.467 35.1774 81.6271 34.5842 81.6321 33.9796V20.6279C81.6311 20.0228 81.4707 19.4285 81.1669 18.9051ZM65.8685 13.5299H66.3681L76.4638 19.353L66.1269 25.3138L55.7901 19.353L65.8685 13.5299ZM67.8497 40.2335L77.9281 34.4104L78.1865 33.9797V22.3336L67.8497 28.3117V40.2335Z" fill="black"/>
</g>
<g filter="url(#filter1_d_0_62)">
<path d="M328.094 23.966C328.094 21.9998 326.187 19.914 322.882 19.914C319.168 19.914 315.095 22.6326 314.465 28.0649C313.829 33.5571 317.248 35.9839 320.684 35.9839C324.118 35.9839 325.926 34.6456 327.762 32.8517C326.177 30.8549 324.132 31.7842 323.745 31.9787C323.318 32.1931 322.756 32.4896 321.616 32.4896C320.285 32.4896 318.935 31.8873 318.935 29.416C327.445 28.6004 328.094 25.9334 328.094 23.966ZM323.877 24.2953C323.822 24.9011 323.573 25.9499 319.267 26.5264C320.175 23.3016 321.907 23.0626 322.707 23.0626C323.457 23.0626 323.935 23.6438 323.877 24.2953ZM309.464 24.8191C309.464 24.8191 307.633 30.5585 307.492 31.0401C307.442 30.5585 306.103 20.2492 306.103 20.2492C302.986 20.2492 301.319 22.4638 300.44 24.8168C300.44 24.8168 298.213 30.5726 298.033 31.0542C298.022 30.603 297.691 24.8766 297.691 24.8766C297.502 21.9986 294.875 20.2562 292.746 20.2562L295.306 35.8749C298.577 35.8643 300.327 33.6532 301.251 31.3049C301.251 31.3049 303.209 26.2264 303.29 25.9956C303.31 26.2159 304.698 35.8749 304.698 35.8749C307.971 35.8749 309.737 33.8044 310.687 31.5405L315.279 20.2562C312.045 20.2562 310.343 22.465 309.464 24.8191ZM340.114 19.8929C338.102 19.8929 336.552 20.9862 335.247 22.6021L335.249 22.5903L336.409 13.2056C333.73 13.2056 331.541 15.5374 331.125 18.9965L329.088 35.753C330.633 35.753 332.27 35.3042 333.154 34.1688C333.945 35.1847 335.12 35.9944 336.86 35.9944C341.377 35.9944 344.483 30.7436 344.483 25.8139C344.483 21.3155 342.294 19.8929 340.114 19.8929ZM339.699 27.9431C339.231 30.6991 337.699 32.5575 336.216 32.5575C334.72 32.5575 334.089 31.8967 334.089 31.8967C334.368 29.4875 334.553 28.0099 335.098 26.7373C335.641 25.4648 336.927 23.4341 338.272 23.4341C339.58 23.4341 340.168 25.1882 339.699 27.9431ZM355.807 20.2574H352.644L352.659 20.0921C352.875 18.0274 353.369 16.9435 354.97 16.7771C356.063 16.6647 356.558 16.0963 356.673 15.4823C356.763 15.0007 357.069 13.2981 357.069 13.2981C350.725 13.2618 348.736 16.0003 348.229 20.1624L348.217 20.2562L348.155 20.2585C347.125 20.2585 345.994 21.4245 345.796 22.9056L345.727 23.4504H347.836L346.066 38.1083L345.529 40.7424L345.747 40.7495C348.708 40.637 350.613 38.3016 351.034 34.9011L352.417 23.4504H353.408C354.378 23.4504 355.518 22.4779 355.729 20.8526L355.807 20.2574ZM372.219 19.9855C368.575 19.9855 365.14 22.6677 364.084 26.8873C363.029 31.1058 364.633 36.087 369.989 36.087C375.346 36.087 378.424 30.8948 378.424 26.5838C378.424 22.2704 375.509 19.9855 372.219 19.9855ZM373.696 27.8177C373.507 29.7312 372.664 32.622 370.358 32.622C368.042 32.622 368.371 29.2297 368.595 27.6197C368.836 25.8936 369.806 23.4504 371.869 23.4504C373.734 23.4504 373.909 25.6569 373.696 27.8177ZM396.421 24.8191C396.421 24.8191 394.59 30.5585 394.45 31.0401C394.399 30.5585 393.06 20.2492 393.06 20.2492C389.943 20.2492 388.276 22.4638 387.397 24.8168C387.397 24.8168 385.172 30.5726 384.991 31.0542C384.98 30.603 384.649 24.8766 384.649 24.8766C384.46 21.9986 381.832 20.2562 379.704 20.2562L382.263 35.8749C385.533 35.8643 387.285 33.6532 388.209 31.3049C388.209 31.3049 390.167 26.2264 390.247 25.9956C390.268 26.2159 391.655 35.8749 391.655 35.8749C394.928 35.8749 396.694 33.8044 397.644 31.5405L402.237 20.2562C399.002 20.2562 397.299 22.465 396.421 24.8191ZM358.783 13.2981L356.128 34.7136L356.121 34.7101L355.582 37.3584L355.798 37.3653C358.658 37.3302 360.686 34.8215 361.068 31.6576L362.601 19.3656C363.067 15.6218 360.835 13.2981 358.783 13.2981Z" fill="black"/>
</g>
<g filter="url(#filter2_d_0_62)">
<path d="M560.913 35.5843H564.907V28.7372H566.644L570.886 35.5843H575.153L570.464 28.0426C572.548 27.4224 574.111 26.0083 574.111 23.329V23.2297C574.111 19.5581 571.457 17.8463 567.264 17.8463H560.913V35.5843ZM564.907 26.0083V20.9226H567.165C569.1 20.9226 570.191 21.5428 570.191 23.3538V23.453C570.191 25.1648 569.174 26.0083 567.165 26.0083H564.907Z" fill="black"/>
<path d="M582.009 35.8547C585.556 35.8547 587.789 34.2918 588.211 31.4884H584.812C584.589 32.58 583.77 33.2995 582.108 33.2995C580.148 33.2995 578.982 32.0591 578.883 29.9008H588.236V28.9084C588.236 24.2692 585.258 22.3094 581.909 22.3094C578.138 22.3094 575.236 24.9639 575.236 29.0573V29.2557C575.236 33.3987 578.089 35.8547 582.009 35.8547ZM578.932 27.6928C579.205 25.857 580.297 24.7902 581.909 24.7902C583.621 24.7902 584.613 25.7329 584.738 27.6928H578.932Z" fill="black"/>
<path d="M589.945 35.5815H593.518V16.7272H589.945V35.5815Z" fill="black"/>
<path d="M600.372 35.8559C602.505 35.8559 603.82 34.8635 604.49 33.5487V35.583H608.062V22.6082H604.49V30.2244C604.49 32.1347 603.299 33.0774 601.786 33.0774C600.248 33.0774 599.528 32.2339 599.528 30.4725V22.6082H595.956V30.9687C595.956 34.3674 597.841 35.8559 600.372 35.8559Z" fill="black"/>
<path d="M610.501 35.5818H614.099V27.9161C614.099 26.1547 615.215 25.2615 616.604 25.2615C617.869 25.2615 618.638 26.0058 618.638 27.668V35.5818H622.211V27.9161C622.211 26.1547 623.327 25.2615 624.716 25.2615C626.006 25.2615 626.751 26.0058 626.751 27.668V35.5818H630.323V27.2711C630.323 23.8227 628.463 22.3094 626.056 22.3094C624.419 22.3094 622.732 23.004 621.69 24.567C621.07 23.0289 619.78 22.3094 618.068 22.3094C616.132 22.3094 614.743 23.3761 614.099 24.5917V22.6071H610.501V35.5818Z" fill="black"/>
<path d="M638.63 35.8547C642.178 35.8547 644.411 34.2918 644.832 31.4884H641.433C641.21 32.58 640.391 33.2995 638.729 33.2995C636.769 33.2995 635.603 32.0591 635.504 29.9008H644.857V28.9084C644.857 24.2692 641.879 22.3094 638.53 22.3094C634.76 22.3094 631.857 24.9639 631.857 29.0573V29.2557C631.857 33.3987 634.71 35.8547 638.63 35.8547ZM635.554 27.6928C635.827 25.857 636.919 24.7902 638.53 24.7902C640.242 24.7902 641.235 25.7329 641.359 27.6928H635.554Z" fill="black"/>
<path fill-rule="evenodd" clip-rule="evenodd" d="M547.167 18.9051L546.926 18.4744C546.615 17.9536 546.176 17.5207 545.651 17.2168L534.091 10.5495C533.568 10.2459 532.973 10.0854 532.368 10.0843H531.869C531.264 10.0854 530.669 10.2459 530.146 10.5495L518.586 17.234C518.064 17.5359 517.63 17.9696 517.328 18.4917L517.087 18.9224C516.783 19.4458 516.623 20.04 516.622 20.6451V33.9969C516.623 34.602 516.783 35.1962 517.087 35.7197L517.328 36.1504C517.638 36.6664 518.07 37.0983 518.586 37.408L530.163 44.0752C530.684 44.3852 531.28 44.5461 531.886 44.5404H532.368C532.973 44.5393 533.568 44.3788 534.091 44.0752L545.651 37.3908C546.178 37.0957 546.614 36.6604 546.909 36.1331L547.167 35.7024C547.467 35.1774 547.627 34.5842 547.632 33.9796V20.6279C547.631 20.0228 547.471 19.4285 547.167 18.9051ZM531.869 13.5299H532.368L542.464 19.353L532.127 25.3138L521.79 19.353L531.869 13.5299ZM533.85 40.2335L543.928 34.4104L544.187 33.9797V22.3336L533.85 28.3117V40.2335Z" fill="black"/>
</g>
<g filter="url(#filter3_d_0_62)">
<path d="M794.094 23.966C794.094 21.9998 792.188 19.914 788.882 19.914C785.169 19.914 781.096 22.6326 780.465 28.0649C779.829 33.5571 783.248 35.9839 786.684 35.9839C790.118 35.9839 791.926 34.6456 793.763 32.8517C792.177 30.8549 790.132 31.7842 789.746 31.9787C789.318 32.1931 788.757 32.4896 787.617 32.4896C786.285 32.4896 784.935 31.8873 784.935 29.416C793.445 28.6004 794.094 25.9334 794.094 23.966ZM789.877 24.2953C789.822 24.9011 789.573 25.9499 785.267 26.5264C786.175 23.3016 787.907 23.0626 788.707 23.0626C789.457 23.0626 789.936 23.6438 789.877 24.2953ZM775.464 24.8191C775.464 24.8191 773.634 30.5585 773.492 31.0401C773.443 30.5585 772.103 20.2492 772.103 20.2492C768.986 20.2492 767.319 22.4638 766.44 24.8168C766.44 24.8168 764.214 30.5726 764.033 31.0542C764.023 30.603 763.691 24.8766 763.691 24.8766C763.502 21.9986 760.875 20.2562 758.746 20.2562L761.306 35.8749C764.577 35.8643 766.328 33.6532 767.251 31.3049C767.251 31.3049 769.209 26.2264 769.29 25.9956C769.31 26.2159 770.698 35.8749 770.698 35.8749C773.971 35.8749 775.737 33.8044 776.687 31.5405L781.28 20.2562C778.045 20.2562 776.343 22.465 775.464 24.8191ZM806.114 19.8929C804.102 19.8929 802.552 20.9862 801.247 22.6021L801.249 22.5903L802.409 13.2056C799.73 13.2056 797.542 15.5374 797.126 18.9965L795.088 35.753C796.633 35.753 798.27 35.3042 799.154 34.1688C799.945 35.1847 801.12 35.9944 802.86 35.9944C807.377 35.9944 810.483 30.7436 810.483 25.8139C810.483 21.3155 808.294 19.8929 806.114 19.8929ZM805.7 27.9431C805.231 30.6991 803.699 32.5575 802.216 32.5575C800.721 32.5575 800.089 31.8967 800.089 31.8967C800.368 29.4875 800.553 28.0099 801.098 26.7373C801.642 25.4648 802.927 23.4341 804.272 23.4341C805.58 23.4341 806.168 25.1882 805.7 27.9431ZM821.807 20.2574H818.644L818.659 20.0921C818.875 18.0274 819.37 16.9435 820.97 16.7771C822.063 16.6647 822.558 16.0963 822.673 15.4823C822.763 15.0007 823.069 13.2981 823.069 13.2981C816.725 13.2618 814.736 16.0003 814.229 20.1624L814.217 20.2562L814.155 20.2585C813.125 20.2585 811.994 21.4245 811.796 22.9056L811.727 23.4504H813.836L812.066 38.1083L811.529 40.7424L811.747 40.7495C814.708 40.637 816.614 38.3016 817.034 34.9011L818.417 23.4504H819.408C820.378 23.4504 821.519 22.4779 821.73 20.8526L821.807 20.2574ZM838.219 19.9855C834.575 19.9855 831.14 22.6677 830.084 26.8873C829.03 31.1058 830.633 36.087 835.989 36.087C841.347 36.087 844.425 30.8948 844.425 26.5838C844.425 22.2704 841.509 19.9855 838.219 19.9855ZM839.696 27.8177C839.508 29.7312 838.664 32.622 836.358 32.622C834.042 32.622 834.372 29.2297 834.596 27.6197C834.836 25.8936 835.806 23.4504 837.87 23.4504C839.734 23.4504 839.91 25.6569 839.696 27.8177ZM862.421 24.8191C862.421 24.8191 860.59 30.5585 860.45 31.0401C860.4 30.5585 859.06 20.2492 859.06 20.2492C855.944 20.2492 854.277 22.4638 853.397 24.8168C853.397 24.8168 851.172 30.5726 850.991 31.0542C850.98 30.603 850.649 24.8766 850.649 24.8766C850.46 21.9986 847.832 20.2562 845.704 20.2562L848.263 35.8749C851.534 35.8643 853.286 33.6532 854.209 31.3049C854.209 31.3049 856.167 26.2264 856.248 25.9956C856.268 26.2159 857.655 35.8749 857.655 35.8749C860.928 35.8749 862.694 33.8044 863.644 31.5405L868.238 20.2562C865.003 20.2562 863.3 22.465 862.421 24.8191ZM824.783 13.2981L822.128 34.7136L822.121 34.7101L821.582 37.3584L821.799 37.3653C824.658 37.3302 826.686 34.8215 827.068 31.6576L828.602 19.3656C829.067 15.6218 826.835 13.2981 824.783 13.2981Z" fill="black"/>
</g>
<g filter="url(#filter4_d_0_62)">
<path d="M1026.91 35.5843H1030.91V28.7372H1032.64L1036.89 35.5843H1041.15L1036.46 28.0426C1038.55 27.4224 1040.11 26.0083 1040.11 23.329V23.2297C1040.11 19.5581 1037.46 17.8463 1033.26 17.8463H1026.91V35.5843ZM1030.91 26.0083V20.9226H1033.16C1035.1 20.9226 1036.19 21.5428 1036.19 23.3538V23.453C1036.19 25.1648 1035.17 26.0083 1033.16 26.0083H1030.91Z" fill="black"/>
<path d="M1048.01 35.8547C1051.56 35.8547 1053.79 34.2918 1054.21 31.4884H1050.81C1050.59 32.58 1049.77 33.2995 1048.11 33.2995C1046.15 33.2995 1044.98 32.0591 1044.88 29.9008H1054.24V28.9084C1054.24 24.2692 1051.26 22.3094 1047.91 22.3094C1044.14 22.3094 1041.24 24.9639 1041.24 29.0573V29.2557C1041.24 33.3987 1044.09 35.8547 1048.01 35.8547ZM1044.93 27.6928C1045.21 25.857 1046.3 24.7902 1047.91 24.7902C1049.62 24.7902 1050.61 25.7329 1050.74 27.6928H1044.93Z" fill="black"/>
<path d="M1055.95 35.5815H1059.52V16.7272H1055.95V35.5815Z" fill="black"/>
<path d="M1066.37 35.8559C1068.51 35.8559 1069.82 34.8635 1070.49 33.5487V35.583H1074.06V22.6082H1070.49V30.2244C1070.49 32.1347 1069.3 33.0774 1067.79 33.0774C1066.25 33.0774 1065.53 32.2339 1065.53 30.4725V22.6082H1061.96V30.9687C1061.96 34.3674 1063.84 35.8559 1066.37 35.8559Z" fill="black"/>
<path d="M1076.5 35.5818H1080.1V27.9161C1080.1 26.1547 1081.21 25.2615 1082.6 25.2615C1083.87 25.2615 1084.64 26.0058 1084.64 27.668V35.5818H1088.21V27.9161C1088.21 26.1547 1089.33 25.2615 1090.72 25.2615C1092.01 25.2615 1092.75 26.0058 1092.75 27.668V35.5818H1096.32V27.2711C1096.32 23.8227 1094.46 22.3094 1092.06 22.3094C1090.42 22.3094 1088.73 23.004 1087.69 24.567C1087.07 23.0289 1085.78 22.3094 1084.07 22.3094C1082.13 22.3094 1080.74 23.3761 1080.1 24.5917V22.6071H1076.5V35.5818Z" fill="black"/>
<path d="M1104.63 35.8547C1108.18 35.8547 1110.41 34.2918 1110.83 31.4884H1107.43C1107.21 32.58 1106.39 33.2995 1104.73 33.2995C1102.77 33.2995 1101.6 32.0591 1101.5 29.9008H1110.86V28.9084C1110.86 24.2692 1107.88 22.3094 1104.53 22.3094C1100.76 22.3094 1097.86 24.9639 1097.86 29.0573V29.2557C1097.86 33.3987 1100.71 35.8547 1104.63 35.8547ZM1101.55 27.6928C1101.83 25.857 1102.92 24.7902 1104.53 24.7902C1106.24 24.7902 1107.23 25.7329 1107.36 27.6928H1101.55Z" fill="black"/>
<path fill-rule="evenodd" clip-rule="evenodd" d="M1013.17 18.9051L1012.93 18.4744C1012.61 17.9536 1012.18 17.5207 1011.65 17.2168L1000.09 10.5495C999.568 10.2459 998.973 10.0854 998.368 10.0843H997.869C997.264 10.0854 996.669 10.2459 996.146 10.5495L984.586 17.234C984.064 17.5359 983.63 17.9696 983.328 18.4917L983.087 18.9224C982.783 19.4458 982.623 20.04 982.622 20.6451V33.9969C982.623 34.602 982.783 35.1962 983.087 35.7197L983.328 36.1504C983.638 36.6664 984.07 37.0983 984.586 37.408L996.163 44.0752C996.684 44.3852 997.28 44.5461 997.886 44.5404H998.368C998.973 44.5393 999.568 44.3788 1000.09 44.0752L1011.65 37.3908C1012.18 37.0957 1012.61 36.6604 1012.91 36.1331L1013.17 35.7024C1013.47 35.1774 1013.63 34.5842 1013.63 33.9796V20.6279C1013.63 20.0228 1013.47 19.4285 1013.17 18.9051ZM997.869 13.5299H998.368L1008.46 19.353L998.127 25.3138L987.79 19.353L997.869 13.5299ZM999.85 40.2335L1009.93 34.4104L1010.19 33.9797V22.3336L999.85 28.3117V40.2335Z" fill="black"/>
</g>
<g filter="url(#filter5_d_0_62)">
<path d="M1260.09 23.966C1260.09 21.9998 1258.19 19.914 1254.88 19.914C1251.17 19.914 1247.1 22.6326 1246.47 28.0649C1245.83 33.5571 1249.25 35.9839 1252.68 35.9839C1256.12 35.9839 1257.93 34.6456 1259.76 32.8517C1258.18 30.8549 1256.13 31.7842 1255.75 31.9787C1255.32 32.1931 1254.76 32.4896 1253.62 32.4896C1252.29 32.4896 1250.94 31.8873 1250.94 29.416C1259.45 28.6004 1260.09 25.9334 1260.09 23.966ZM1255.88 24.2953C1255.82 24.9011 1255.57 25.9499 1251.27 26.5264C1252.18 23.3016 1253.91 23.0626 1254.71 23.0626C1255.46 23.0626 1255.94 23.6438 1255.88 24.2953ZM1241.46 24.8191C1241.46 24.8191 1239.63 30.5585 1239.49 31.0401C1239.44 30.5585 1238.1 20.2492 1238.1 20.2492C1234.99 20.2492 1233.32 22.4638 1232.44 24.8168C1232.44 24.8168 1230.21 30.5726 1230.03 31.0542C1230.02 30.603 1229.69 24.8766 1229.69 24.8766C1229.5 21.9986 1226.88 20.2562 1224.75 20.2562L1227.31 35.8749C1230.58 35.8643 1232.33 33.6532 1233.25 31.3049C1233.25 31.3049 1235.21 26.2264 1235.29 25.9956C1235.31 26.2159 1236.7 35.8749 1236.7 35.8749C1239.97 35.8749 1241.74 33.8044 1242.69 31.5405L1247.28 20.2562C1244.05 20.2562 1242.34 22.465 1241.46 24.8191ZM1272.11 19.8929C1270.1 19.8929 1268.55 20.9862 1267.25 22.6021L1267.25 22.5903L1268.41 13.2056C1265.73 13.2056 1263.54 15.5374 1263.13 18.9965L1261.09 35.753C1262.63 35.753 1264.27 35.3042 1265.15 34.1688C1265.95 35.1847 1267.12 35.9944 1268.86 35.9944C1273.38 35.9944 1276.48 30.7436 1276.48 25.8139C1276.48 21.3155 1274.29 19.8929 1272.11 19.8929ZM1271.7 27.9431C1271.23 30.6991 1269.7 32.5575 1268.22 32.5575C1266.72 32.5575 1266.09 31.8967 1266.09 31.8967C1266.37 29.4875 1266.55 28.0099 1267.1 26.7373C1267.64 25.4648 1268.93 23.4341 1270.27 23.4341C1271.58 23.4341 1272.17 25.1882 1271.7 27.9431ZM1287.81 20.2574H1284.64L1284.66 20.0921C1284.88 18.0274 1285.37 16.9435 1286.97 16.7771C1288.06 16.6647 1288.56 16.0963 1288.67 15.4823C1288.76 15.0007 1289.07 13.2981 1289.07 13.2981C1282.73 13.2618 1280.74 16.0003 1280.23 20.1624L1280.22 20.2562L1280.16 20.2585C1279.13 20.2585 1277.99 21.4245 1277.8 22.9056L1277.73 23.4504H1279.84L1278.07 38.1083L1277.53 40.7424L1277.75 40.7495C1280.71 40.637 1282.61 38.3016 1283.03 34.9011L1284.42 23.4504H1285.41C1286.38 23.4504 1287.52 22.4779 1287.73 20.8526L1287.81 20.2574ZM1304.22 19.9855C1300.57 19.9855 1297.14 22.6677 1296.08 26.8873C1295.03 31.1058 1296.63 36.087 1301.99 36.087C1307.35 36.087 1310.42 30.8948 1310.42 26.5838C1310.42 22.2704 1307.51 19.9855 1304.22 19.9855ZM1305.7 27.8177C1305.51 29.7312 1304.66 32.622 1302.36 32.622C1300.04 32.622 1300.37 29.2297 1300.6 27.6197C1300.84 25.8936 1301.81 23.4504 1303.87 23.4504C1305.73 23.4504 1305.91 25.6569 1305.7 27.8177ZM1328.42 24.8191C1328.42 24.8191 1326.59 30.5585 1326.45 31.0401C1326.4 30.5585 1325.06 20.2492 1325.06 20.2492C1321.94 20.2492 1320.28 22.4638 1319.4 24.8168C1319.4 24.8168 1317.17 30.5726 1316.99 31.0542C1316.98 30.603 1316.65 24.8766 1316.65 24.8766C1316.46 21.9986 1313.83 20.2562 1311.7 20.2562L1314.26 35.8749C1317.53 35.8643 1319.29 33.6532 1320.21 31.3049C1320.21 31.3049 1322.17 26.2264 1322.25 25.9956C1322.27 26.2159 1323.66 35.8749 1323.66 35.8749C1326.93 35.8749 1328.69 33.8044 1329.64 31.5405L1334.24 20.2562C1331 20.2562 1329.3 22.465 1328.42 24.8191ZM1290.78 13.2981L1288.13 34.7136L1288.12 34.7101L1287.58 37.3584L1287.8 37.3653C1290.66 37.3302 1292.69 34.8215 1293.07 31.6576L1294.6 19.3656C1295.07 15.6218 1292.84 13.2981 1290.78 13.2981Z" fill="black"/>
</g>
<defs>
<filter id="filter0_d_0_62" x="0" y="-6.00022" width="248.001" height="73.7859" filterUnits="userSpaceOnUse" color-interpolation-filters="sRGB">
<feFlood flood-opacity="0" result="BackgroundImageFix"/>
<feColorMatrix in="SourceAlpha" type="matrix" values="0 0 0 0 0 0 0 0 0 0 0 0 0 0 0 0 0 0 127 0" result="hardAlpha"/>
<feOffset dx="10" dy="4"/>
<feGaussianBlur stdDeviation="5"/>
<feComposite in2="hardAlpha" operator="out"/>
<feColorMatrix type="matrix" values="0 0 0 0 0 0 0 0 0 0 0 0 0 0 0 0 0 0 0.25 0"/>
<feBlend mode="normal" in2="BackgroundImageFix" result="effect1_dropShadow_0_62"/>
<feBlend mode="normal" in="SourceGraphic" in2="effect1_dropShadow_0_62" result="shape"/>
</filter>
<filter id="filter1_d_0_62" x="233" y="-2.15828" width="248.001" height="66.102" filterUnits="userSpaceOnUse" color-interpolation-filters="sRGB">
<feFlood flood-opacity="0" result="BackgroundImageFix"/>
<feColorMatrix in="SourceAlpha" type="matrix" values="0 0 0 0 0 0 0 0 0 0 0 0 0 0 0 0 0 0 127 0" result="hardAlpha"/>
<feOffset dx="10" dy="4"/>
<feGaussianBlur stdDeviation="5"/>
<feComposite in2="hardAlpha" operator="out"/>
<feColorMatrix type="matrix" values="0 0 0 0 0 0 0 0 0 0 0 0 0 0 0 0 0 0 0.25 0"/>
<feBlend mode="normal" in2="BackgroundImageFix" result="effect1_dropShadow_0_62"/>
<feBlend mode="normal" in="SourceGraphic" in2="effect1_dropShadow_0_62" result="shape"/>
</filter>
<filter id="filter2_d_0_62" x="466" y="-6.00022" width="248.001" height="73.7859" filterUnits="userSpaceOnUse" color-interpolation-filters="sRGB">
<feFlood flood-opacity="0" result="BackgroundImageFix"/>
<feColorMatrix in="SourceAlpha" type="matrix" values="0 0 0 0 0 0 0 0 0 0 0 0 0 0 0 0 0 0 127 0" result="hardAlpha"/>
<feOffset dx="10" dy="4"/>
<feGaussianBlur stdDeviation="5"/>
<feComposite in2="hardAlpha" operator="out"/>
<feColorMatrix type="matrix" values="0 0 0 0 0 0 0 0 0 0 0 0 0 0 0 0 0 0 0.25 0"/>
<feBlend mode="normal" in2="BackgroundImageFix" result="effect1_dropShadow_0_62"/>
<feBlend mode="normal" in="SourceGraphic" in2="effect1_dropShadow_0_62" result="shape"/>
</filter>
<filter id="filter3_d_0_62" x="699" y="-2.15828" width="248.001" height="66.102" filterUnits="userSpaceOnUse" color-interpolation-filters="sRGB">
<feFlood flood-opacity="0" result="BackgroundImageFix"/>
<feColorMatrix in="SourceAlpha" type="matrix" values="0 0 0 0 0 0 0 0 0 0 0 0 0 0 0 0 0 0 127 0" result="hardAlpha"/>
<feOffset dx="10" dy="4"/>
<feGaussianBlur stdDeviation="5"/>
<feComposite in2="hardAlpha" operator="out"/>
<feColorMatrix type="matrix" values="0 0 0 0 0 0 0 0 0 0 0 0 0 0 0 0 0 0 0.25 0"/>
<feBlend mode="normal" in2="BackgroundImageFix" result="effect1_dropShadow_0_62"/>
<feBlend mode="normal" in="SourceGraphic" in2="effect1_dropShadow_0_62" result="shape"/>
</filter>
<filter id="filter4_d_0_62" x="932" y="-6.00022" width="248.001" height="73.7859" filterUnits="userSpaceOnUse" color-interpolation-filters="sRGB">
<feFlood flood-opacity="0" result="BackgroundImageFix"/>
<feColorMatrix in="SourceAlpha" type="matrix" values="0 0 0 0 0 0 0 0 0 0 0 0 0 0 0 0 0 0 127 0" result="hardAlpha"/>
<feOffset dx="10" dy="4"/>
<feGaussianBlur stdDeviation="5"/>
<feComposite in2="hardAlpha" operator="out"/>
<feColorMatrix type="matrix" values="0 0 0 0 0 0 0 0 0 0 0 0 0 0 0 0 0 0 0.25 0"/>
<feBlend mode="normal" in2="BackgroundImageFix" result="effect1_dropShadow_0_62"/>
<feBlend mode="normal" in="SourceGraphic" in2="effect1_dropShadow_0_62" result="shape"/>
</filter>
<filter id="filter5_d_0_62" x="1165" y="-2.15828" width="248" height="66.102" filterUnits="userSpaceOnUse" color-interpolation-filters="sRGB">
<feFlood flood-opacity="0" result="BackgroundImageFix"/>
<feColorMatrix in="SourceAlpha" type="matrix" values="0 0 0 0 0 0 0 0 0 0 0 0 0 0 0 0 0 0 127 0" result="hardAlpha"/>
<feOffset dx="10" dy="4"/>
<feGaussianBlur stdDeviation="5"/>
<feComposite in2="hardAlpha" operator="out"/>
<feColorMatrix type="matrix" values="0 0 0 0 0 0 0 0 0 0 0 0 0 0 0 0 0 0 0.25 0"/>
<feBlend mode="normal" in2="BackgroundImageFix" result="effect1_dropShadow_0_62"/>
<feBlend mode="normal" in="SourceGraphic" in2="effect1_dropShadow_0_62" result="shape"/>
</filter>
</defs>
</svg>
