<svg width="24" height="24" viewBox="0 0 24 24" fill="none" xmlns="http://www.w3.org/2000/svg">
<path d="M21.5921 7.20344C21.4782 6.78086 21.2556 6.39547 20.9465 6.08565C20.6374 5.77582 20.2525 5.55236 19.8302 5.4375C18.2642 5.00752 11.9994 5.00052 11.9994 5.00052C11.9994 5.00052 5.73564 4.99352 4.16869 5.4045C3.74663 5.52464 3.36254 5.75127 3.0533 6.06261C2.74405 6.37396 2.52003 6.75958 2.40275 7.18244C1.98977 8.74839 1.98577 11.9963 1.98577 11.9963C1.98577 11.9963 1.98177 15.2602 2.39175 16.8101C2.62175 17.6671 3.29672 18.3441 4.15469 18.5751C5.73664 19.005 11.9844 19.012 11.9844 19.012C11.9844 19.012 18.2492 19.019 19.8152 18.6091C20.2376 18.4944 20.6229 18.2715 20.9328 17.9623C21.2427 17.6531 21.4665 17.2683 21.5821 16.8461C21.9961 15.2812 21.9991 12.0343 21.9991 12.0343C21.9991 12.0343 22.0191 8.76939 21.5921 7.20344ZM9.9955 15.0052L10.0005 9.00538L15.2073 12.0103L9.9955 15.0052Z" fill="black"/>
</svg>
